<svg id="svg861" height="512" viewBox="0 0 8.4666665 8.4666669" width="512" xmlns="http://www.w3.org/2000/svg" xmlns:svg="http://www.w3.org/2000/svg"><g id="layer1"><path id="path1058" d="m14.003906 2.9960938c-6.0632815 0-11.0078122 4.9445307-11.0078122 11.0078122.0000002 6.063282 4.9445311 10.998047 11.0078122 10.998047 2.671044 0 5.121453-.960644 7.029297-2.550781l6.257813 6.257812a1.0000006 1.0000006 0 0 0 1.417968 0 1.0000006 1.0000006 0 0 0 0-1.417968l-6.257812-6.257813c1.590137-1.907844 2.550781-4.358253 2.550781-7.029297 0-6.0632811-4.934765-11.007812-10.998047-11.0078122zm0 2.0019531c4.982402.0000004 8.998047 4.0234575 8.998047 9.0058591 0 4.982402-4.015645 8.998047-8.998047 8.998047-4.9824016 0-9.0058587-4.015645-9.0058591-8.998047 0-4.9824016 4.0234575-9.0058591 9.0058591-9.0058591z" stroke-linecap="round" stroke-linejoin="round" stroke-width="2" transform="scale(.265)"/></g></svg>